<svg width="87" height="94" viewBox="0 0 87 94" fill="none" xmlns="http://www.w3.org/2000/svg">
<path d="M42.9992 42C39.6659 28 34.9992 0 42.9992 0C50.9992 0 46.3326 28 42.9992 42Z" fill="#363636"/>
<path d="M42.9988 52C46.3321 66 50.9988 94 42.9988 94C34.9988 94 39.6655 66 42.9988 52Z" fill="#363636"/>
<path d="M42.9992 42C39.6659 28 34.9992 0 42.9992 0C50.9992 0 46.3326 28 42.9992 42Z" fill="#363636"/>
<path d="M42.9988 52C46.3321 66 50.9988 94 42.9988 94C34.9988 94 39.6655 66 42.9988 52Z" fill="#363636"/>
<path d="M47.7476 44.5002C58.2053 34.6135 80.1207 16.572 84.1207 23.5002C88.1207 30.4284 61.5387 40.387 47.7476 44.5002Z" fill="#363636"/>
<path d="M39.0883 49.4998C28.6306 59.3865 6.71522 77.428 2.71522 70.4998C-1.28478 63.5716 25.2973 53.613 39.0883 49.4998Z" fill="#363636"/>
<path d="M39.0875 44.4998C25.2965 40.3865 -1.28553 30.428 2.71447 23.4998C6.71447 16.5716 28.6298 34.613 39.0875 44.4998Z" fill="#363636"/>
<path d="M47.7484 49.5002C61.5394 53.6135 88.1215 63.572 84.1215 70.5002C80.1215 77.4284 58.2061 59.387 47.7484 49.5002Z" fill="#363636"/>
</svg>
